<svg xmlns="http://www.w3.org/2000/svg" xmlns:xlink="http://www.w3.org/1999/xlink" viewBox="0 0 142 1637">
  <defs>
    <style>
      .cls-1, .cls-2, .cls-3, .cls-4, .cls-5, .cls-6, .cls-7, .cls-8, .cls-9 {
        stroke: #2c2c2c;
        stroke-linejoin: round;
        stroke-width: 10px;
      }

      .cls-1 {
        fill: url(#Degradado_sin_nombre_70);
      }

      .cls-2 {
        fill: url(#Degradado_sin_nombre_70-2);
      }

      .cls-3 {
        fill: url(#Degradado_sin_nombre_70-3);
      }

      .cls-4 {
        fill: url(#Degradado_sin_nombre_70-4);
      }

      .cls-5 {
        fill: url(#Degradado_sin_nombre_70-5);
      }

      .cls-6 {
        fill: url(#Degradado_sin_nombre_70-6);
      }

      .cls-7 {
        fill: url(#Degradado_sin_nombre_72);
      }

      .cls-8 {
        fill: url(#Degradado_sin_nombre_70-7);
      }

      .cls-9 {
        fill: url(#Degradado_sin_nombre_70-8);
      }
    </style>
    <linearGradient id="Degradado_sin_nombre_70" data-name="Degradado sin nombre 70" x1="5.04" y1="1547.5" x2="136.93" y2="1547.5" gradientTransform="matrix(-1, 0, 0, 1, 142, 0)" gradientUnits="userSpaceOnUse">
      <stop offset="0" stop-color="#b80837"/>
      <stop offset="0.37" stop-color="#de0b43"/>
      <stop offset="0.99" stop-color="#b30935"/>
    </linearGradient>
    <linearGradient id="Degradado_sin_nombre_70-2" x1="5.04" y1="1474.2" x2="136.93" y2="1474.2" xlink:href="#Degradado_sin_nombre_70"/>
    <linearGradient id="Degradado_sin_nombre_70-3" x1="5.04" y1="844.7" x2="136.93" y2="844.7" xlink:href="#Degradado_sin_nombre_70"/>
    <linearGradient id="Degradado_sin_nombre_70-4" x1="5.04" y1="212.7" x2="136.93" y2="212.7" xlink:href="#Degradado_sin_nombre_70"/>
    <linearGradient id="Degradado_sin_nombre_70-5" x1="5.04" y1="144.7" x2="136.93" y2="144.7" xlink:href="#Degradado_sin_nombre_70"/>
    <linearGradient id="Degradado_sin_nombre_70-6" x1="5.04" y1="54.2" x2="136.93" y2="54.2" xlink:href="#Degradado_sin_nombre_70"/>
    <linearGradient id="Degradado_sin_nombre_72" data-name="Degradado sin nombre 72" x1="5" y1="1614" x2="137" y2="1614" gradientTransform="matrix(-1, 0, 0, 1, 142, 0)" gradientUnits="userSpaceOnUse">
      <stop offset="0" stop-color="#b80837"/>
      <stop offset="0.99" stop-color="#b30935"/>
    </linearGradient>
    <linearGradient id="Degradado_sin_nombre_70-7" x1="102" y1="1469.37" x2="119" y2="1469.37" xlink:href="#Degradado_sin_nombre_70"/>
    <linearGradient id="Degradado_sin_nombre_70-8" x1="94" y1="206.73" x2="114" y2="206.73" xlink:href="#Degradado_sin_nombre_70"/>
  </defs>
  <g id="Capa_2" data-name="Capa 2">
    <g id="Capa_3" data-name="Capa 3">
      <g>
        <path class="cls-1" d="M5.07,1498.2V1614H137V1498.41c-.75-6.36-13.58-11.88-32.43-14.91A213.31,213.31,0,0,0,71,1481c-1.4,0-2.79,0-4.17,0l-2.06,0-1.59.05c-4.22.13-8.32.38-12.27.72-1.26.11-2.51.23-3.74.36s-2.71.3-4,.47l-3.14.43-2.54.39c-1.16.19-2.3.38-3.42.59l-1.66.32q-.83.15-1.62.33-1.4.29-2.73.6l-1.73.42-1.68.44-1.62.45a61.59,61.59,0,0,0-9.41,3.47l-.95.47c-.65.34-1.27.68-1.85,1l-.71.45c-.56.37-1.08.74-1.55,1.11-.14.12-.29.23-.42.35l-.27.24c-.3.27-.58.54-.83.81-.1.1-.19.21-.29.32a9.78,9.78,0,0,0-.8,1.09c-.09.16-.18.31-.26.47s-.17.33-.24.5l0,.1a5.22,5.22,0,0,0-.18.56A3.75,3.75,0,0,0,5.07,1498.2Z"/>
        <path class="cls-2" d="M5.07,1467.2v31a4,4,0,0,1,.13-.58,5.22,5.22,0,0,1,.18-.56l0-.1a4.59,4.59,0,0,1,.24-.5c.08-.16.17-.31.26-.47a9.78,9.78,0,0,1,.8-1.09l.29-.32c.25-.27.53-.54.83-.81l.27-.24c.13-.12.27-.23.42-.35.47-.37,1-.74,1.55-1.11l.71-.45c.58-.35,1.2-.69,1.85-1,.31-.16.62-.32.95-.47a61.59,61.59,0,0,1,9.41-3.47l1.62-.45,1.68-.44,1.73-.42q1.34-.31,2.73-.6.79-.18,1.62-.33l1.66-.32c1.12-.21,2.26-.4,3.42-.59l2.54-.39c1-.15,2.08-.3,3.14-.43,1.32-.17,2.66-.32,4-.47s2.48-.25,3.74-.36c4-.34,8.05-.59,12.27-.72l1.59-.05,2.06,0c1.38,0,2.77,0,4.17,0a213.31,213.31,0,0,1,33.53,2.5c18.85,3,31.68,8.55,32.43,14.91v-31c-1.14-9.67-30.24-17.41-66-17.41a218.73,218.73,0,0,0-31,2.1,128.93,128.93,0,0,0-17,3.55C12.47,1458.69,5.78,1462.73,5.07,1467.2Z"/>
        <path class="cls-3" d="M5.07,239.2v1228c.71-4.47,7.4-8.51,17.93-11.55a128.93,128.93,0,0,1,17-3.55,218.73,218.73,0,0,1,31-2.1c35.72,0,64.82,7.74,66,17.41v-1228C135.82,229.74,106.72,222,71,222c-1.76,0-3.51,0-5.23.06l-1.34,0-1.62,0-1.6.06c-4.57.18-9,.5-13.21.92l-.22,0-1.83.2-1.44.17-1.92.24-.91.12-1.7.24c-.86.13-1.71.25-2.55.39l-2.47.42c-2.44.43-4.76.91-7,1.42-.93.22-1.84.44-2.73.68-1.82.48-3.54,1-5.15,1.52-.34.1-.68.22-1,.34l-.94.33c-.62.22-1.22.45-1.79.69l-.85.35-.83.36-.79.36-.77.37-1.31.68-.12.07-.67.39c-.22.12-.43.25-.64.39a20,20,0,0,0-2.21,1.6l-.46.41c-.3.28-.58.56-.83.84s-.25.28-.36.42a8,8,0,0,0-.61.86,5.75,5.75,0,0,0-.41.77,3.08,3.08,0,0,0-.19.47,4.42,4.42,0,0,0-.15.48C5.13,238.88,5.1,239,5.07,239.2Z"/>
        <path class="cls-4" d="M5.07,203.2v36c0-.16.06-.32.1-.48a4.42,4.42,0,0,1,.15-.48,3.08,3.08,0,0,1,.19-.47,5.75,5.75,0,0,1,.41-.77,5.9,5.9,0,0,1,.61-.86q.16-.21.36-.42a7.29,7.29,0,0,1,.83-.84,5.87,5.87,0,0,1,.46-.41,17.26,17.26,0,0,1,2.21-1.6c.21-.14.42-.27.64-.39s.44-.27.67-.39l.12-.07c.42-.23.86-.46,1.31-.68l.77-.37c.26-.13.52-.25.79-.36s.55-.25.83-.36l.85-.35c.57-.24,1.17-.47,1.79-.69l.94-.33c.34-.12.68-.24,1-.34l1.23-.4c.83-.26,1.69-.52,2.57-.76l1.35-.36c.89-.24,1.8-.46,2.73-.68,2.2-.51,4.52-1,7-1.42l2.47-.42c.84-.14,1.69-.26,2.55-.39l1.7-.24.91-.12,1.92-.24,1.44-.17,1.83-.2.22,0c4.22-.42,8.64-.74,13.21-.92l1.6-.06,1.62,0,1.34,0c1.72,0,3.47-.06,5.23-.06,35.72,0,64.82,7.74,66,17.41v-36C135.82,193.74,106.72,186,71,186c-8.09,0-15.84.4-23,1.12a160,160,0,0,0-20,3.22C14.61,193.48,5.89,198.06,5.07,203.2Z"/>
        <path class="cls-5" d="M5.07,103.2v100c.82-5.14,9.54-9.72,22.93-12.86a160,160,0,0,1,20-3.22c7.16-.72,14.91-1.12,23-1.12,35.72,0,64.82,7.74,66,17.41v-100C135.82,93.74,106.72,86,71,86,35.53,86,6.6,93.63,5.07,103.2Z"/>
        <path class="cls-6" d="M5.07,25v78.2C6.6,93.63,35.53,86,71,86c35.72,0,64.82,7.74,66,17.41V5H25.07A20,20,0,0,0,5.07,25Z"/>
        <ellipse class="cls-7" cx="71" cy="1614" rx="66" ry="18"/>
        <path class="cls-8" d="M23,1455.65v31l1.62-.45,1.68-.44,1.73-.42q1.34-.31,2.73-.6.79-.18,1.62-.33l1.66-.32c1.12-.21,2.26-.4,3.42-.59l2.54-.39v-31A128.93,128.93,0,0,0,23,1455.65Z"/>
        <path class="cls-9" d="M28,190.34v36c2.2-.51,4.52-1,7-1.42l2.47-.42c.84-.14,1.69-.26,2.55-.39l1.7-.24.91-.12,1.92-.24,1.44-.17,1.83-.2.22,0v-36A160,160,0,0,0,28,190.34Z"/>
      </g>
    </g>
  </g>
</svg>
