<svg xmlns="http://www.w3.org/2000/svg" viewBox="0 0 258.5 258">
  <defs>
    <style>
      .cls-1 {
        fill: #2c2c2c;
        stroke: #040203;
      }

      .cls-1, .cls-2 {
        stroke-miterlimit: 10;
        stroke-width: 5px;
      }

      .cls-2 {
        fill: none;
        stroke: #000;
      }
    </style>
  </defs>
  <g id="Capa_2" data-name="Capa 2">
    <g id="Capa_2-2" data-name="Capa 2">
      <g>
        <path d="M245.66,166.13l-77.11-1.91a8.15,8.15,0,0,0-8.33,8.33l1.91,77.11A8.14,8.14,0,0,1,154,258H100a8.14,8.14,0,0,1-8.13-8.34l1.91-77.11a8.15,8.15,0,0,0-8.33-8.33L8.34,166.13A8.14,8.14,0,0,1,0,158V104a8.14,8.14,0,0,1,8.34-8.13l77.11,1.91a8.15,8.15,0,0,0,8.33-8.33L91.87,12.34A8.14,8.14,0,0,1,100,4h54a8.14,8.14,0,0,1,8.13,8.34l-1.91,77.11a8.15,8.15,0,0,0,8.33,8.33l77.11-1.91A8.14,8.14,0,0,1,254,104v54A8.14,8.14,0,0,1,245.66,166.13Z"/>
        <path class="cls-1" d="M247.86,160.8l-75.29-1.86a7.92,7.92,0,0,0-8.13,8.13l1.86,75.29a8,8,0,0,1-7.94,8.14H105.64a8,8,0,0,1-7.94-8.14l1.86-75.29a7.92,7.92,0,0,0-8.13-8.13L16.14,160.8A8,8,0,0,1,8,152.86V100.14a8,8,0,0,1,8.14-7.94l75.29,1.86a7.92,7.92,0,0,0,8.13-8.13L97.7,10.64a8,8,0,0,1,7.94-8.14h52.72a8,8,0,0,1,7.94,8.14l-1.86,75.29a7.92,7.92,0,0,0,8.13,8.13l75.29-1.86a8,8,0,0,1,8.14,7.94v52.72A8,8,0,0,1,247.86,160.8Z"/>
        <circle class="cls-2" cx="131.5" cy="126.5" r="22"/>
      </g>
    </g>
  </g>
</svg>
