<svg xmlns="http://www.w3.org/2000/svg" xmlns:xlink="http://www.w3.org/1999/xlink" viewBox="0 0 250 62">
  <defs>
    <style>
      .cls-1 {
        fill: url(#Degradado_sin_nombre_112);
      }

      .cls-2 {
        fill: url(#Degradado_sin_nombre_124);
      }

      .cls-3 {
        fill: url(#Degradado_sin_nombre_131);
      }
    </style>
    <radialGradient id="Degradado_sin_nombre_112" data-name="Degradado sin nombre 112" cx="209.08" cy="20.17" r="46.17" gradientUnits="userSpaceOnUse">
      <stop offset="0.08" stop-color="#98fc5b"/>
      <stop offset="0.24" stop-color="#97fa5a"/>
      <stop offset="0.3" stop-color="#93f357"/>
      <stop offset="0.34" stop-color="#8be852"/>
      <stop offset="0.38" stop-color="#81d74b"/>
      <stop offset="0.41" stop-color="#74c141"/>
      <stop offset="0.43" stop-color="#67ac38"/>
    </radialGradient>
    <radialGradient id="Degradado_sin_nombre_124" data-name="Degradado sin nombre 124" cx="115.08" cy="20.17" r="46.17" gradientUnits="userSpaceOnUse">
      <stop offset="0.08" stop-color="#c7d14e"/>
      <stop offset="0.26" stop-color="#c5cf4d"/>
      <stop offset="0.32" stop-color="#c0c84a"/>
      <stop offset="0.36" stop-color="#b6bd44"/>
      <stop offset="0.4" stop-color="#a8ac3c"/>
      <stop offset="0.43" stop-color="#993"/>
    </radialGradient>
    <radialGradient id="Degradado_sin_nombre_131" data-name="Degradado sin nombre 131" cx="21.08" cy="20.17" r="46.17" gradientUnits="userSpaceOnUse">
      <stop offset="0.08" stop-color="#ff002a"/>
      <stop offset="0.27" stop-color="#fd002a"/>
      <stop offset="0.34" stop-color="#f6002c"/>
      <stop offset="0.39" stop-color="#eb002e"/>
      <stop offset="0.43" stop-color="#da0032"/>
      <stop offset="0.43" stop-color="#d60033"/>
    </radialGradient>
  </defs>
  <g id="Capa_2" data-name="Capa 2">
    <g id="Capa_2-2" data-name="Capa 2">
      <g>
        <g>
          <circle class="cls-1" cx="219" cy="31" r="29.5"/>
          <path d="M219,3a28,28,0,1,1-28,28A28,28,0,0,1,219,3m0-3a31,31,0,1,0,31,31A31,31,0,0,0,219,0Z"/>
        </g>
        <g>
          <circle class="cls-2" cx="125" cy="31" r="29.5"/>
          <path d="M125,3A28,28,0,1,1,97,31,28,28,0,0,1,125,3m0-3a31,31,0,1,0,31,31A31,31,0,0,0,125,0Z"/>
        </g>
        <g>
          <circle class="cls-3" cx="31" cy="31" r="29.5"/>
          <path d="M31,3A28,28,0,1,1,3,31,28,28,0,0,1,31,3m0-3A31,31,0,1,0,62,31,31,31,0,0,0,31,0Z"/>
        </g>
      </g>
    </g>
  </g>
</svg>
