<svg xmlns="http://www.w3.org/2000/svg" xmlns:xlink="http://www.w3.org/1999/xlink" viewBox="0 0 532.96 257.61">
  <defs>
    <style>
      .cls-1 {
        fill: url(#New_Gradient_3);
      }

      .cls-2 {
        fill: #ffcb00;
      }

      .cls-3 {
        fill: #00428a;
      }

      .cls-4 {
        fill: #fff;
      }

      .cls-5 {
        fill: #324f9d;
      }
    </style>
    <linearGradient id="New_Gradient_3" data-name="New Gradient 3" x1="-561.39" y1="-492.42" x2="-561.39" y2="-327.73" gradientTransform="translate(935.86 597.14) scale(1.2)" gradientUnits="userSpaceOnUse">
      <stop offset="0" stop-color="#0097c3"/>
      <stop offset="1" stop-color="#c8e3f0"/>
    </linearGradient>
  </defs>
  <g id="Capa_2" data-name="Capa 2">
    <g id="Capa_2-2" data-name="Capa 2">
      <g>
        <g>
          <path class="cls-1" d="M19.34,110.39s4.5,7.57,4.52,7.56l7.93-4,1.11-.55,36.36,81,3.49,7.79,8.15-2.7L100.59,193l8.62-2.85-2.28-8.76L96.48,141.26a86.42,86.42,0,0,0,8.4-7.16,36.74,36.74,0,0,0,1,14.32,33.31,33.31,0,0,0,18,21.53c9.55,4.5,21.21,4.39,32-.3a47,47,0,0,0,14.29-9.8l1.48,16,34.46-5.43,0-31,72,35V139.8a56.29,56.29,0,0,0,8.82-1.5,74,74,0,0,0,20.74-8.39l-3,18.57,38.83,5.73,2.15-14,10.14,18.68,6.19-12,2.26,19.63,44,7.33-2.34-14.83a40,40,0,0,0,18.52-2.63,42.29,42.29,0,0,0,4.27-1.95l-1.77,15.83L456.18,174l.24,12L487,195.35l39.8-120.59-41.44-9.64-3.93,16.29-3.64-18L429.07,53.21l.35,27.11,7.33,1.56-.55,4.91a1.39,1.39,0,0,0-.21-.11c-9.07-4.74-20.34-5.1-31-1a45,45,0,0,0-9.86,5.44l-7.32-46.38-32.38.34-.9,5.34-34.07.35-3.9,23.95-2.83-3.47c-8.26-10.09-20.22-15.57-33.48-15.71L309.2,39.68,289,9.72,252.57,52.18l6.31,7.65a48.18,48.18,0,0,0-14.8,9.58L212.83,42l-11,21.11.43-20.17L153.43,59l1.25,26.31L163,83.08l1.24,13.34c-9.5-4.18-20.9-4-31.5.64a46.24,46.24,0,0,0-8.77,5.09c1.83-8.14,1.4-16.15-1.69-23.26a41.28,41.28,0,0,0-17.93-19.62,42.45,42.45,0,0,0-19-6.55c-16.89-2.8-37.2.47-57.17,9.19A142.8,142.8,0,0,0,7.81,72.77L0,77.83l4.72,7.94m217.26,19,9.26-9.1a44.23,44.23,0,0,0,.68,12.86Zm90.86-7.06-6.35-5.67,6.79-7.32,2-2.19Z"/>
          <path class="cls-2" d="M491.44,57.45,487.49,73.7l-3.64-18L435.06,45l.36,27.12,7.34,1.64-.55,4.9a2.25,2.25,0,0,1-.21-.12c-9.09-4.82-20.39-5.3-31-1.29a44.13,44.13,0,0,0-9.88,5.33l-7.33-46.45H361.29l-.9,5.33H326.25l-3.91,23.9-2.84-3.49A43.62,43.62,0,0,0,286,45.75l29-15.57L294.72,0,258.18,42.09l6.32,7.71a47.76,47.76,0,0,0-14.83,9.42L218.35,31.44l-11,21,.43-20.16-49,15.63,1.25,26.33,8.33-2.18,1.24,13.35c-9.51-4.28-21-4.19-31.56.31a46.42,46.42,0,0,0-8.8,5c1.84-8.12,1.41-16.14-1.69-23.27a41.9,41.9,0,0,0-18-19.81,43,43,0,0,0-19-6.75c-16.93-3-37.28.08-57.29,8.59A141.17,141.17,0,0,0,12.89,60.12l-7.83,5,4.72,8L24.44,97.87s4.51,7.61,4.53,7.6l8-3.89L38,101l36.45,81.37,3.5,7.83,8.16-2.61,19.73-6.31,8.65-2.77-2.29-8.78-10.48-40.24a84.8,84.8,0,0,0,8.42-7.07,36.69,36.69,0,0,0,1,14.34,33.82,33.82,0,0,0,18,21.71c9.57,4.6,21.25,4.61,32.05,0a46.33,46.33,0,0,0,14.32-9.65l1.48,16,34.54-5.07-.05-31,72.19,35.7V130a57.42,57.42,0,0,0,8.83-1.4,73.36,73.36,0,0,0,20.78-8.18l-3,18.54,38.92,6.14,2.15-14,10.17,18.79,6.2-12L370,157.51l44.14,7.79-2.35-14.86A40,40,0,0,0,430.35,148a43.38,43.38,0,0,0,4.29-1.91l-1.78,15.82L462.23,166l.24,12,30.61,9.63L533,67.53ZM91.13,102.38c-1.42-4.72-4.49-14.89-4.49-14.89S86,85.3,85.31,82.77a12.66,12.66,0,0,1,7.7.84,6.64,6.64,0,0,1,3.83,4.59C97.88,94.06,95.86,98.21,91.13,102.38Zm136.39-8,9.28-9a44.32,44.32,0,0,0,.68,12.87Zm42.58-3.66a12.26,12.26,0,0,1,15.19-17.32Zm48.48-2.46-6.37-5.73L319,75.3l2-2.17Z"/>
          <g>
            <path class="cls-3" d="M491.44,57.45,487.49,73.7l-3.64-18L435.06,45l.36,27.12,7.34,1.64-.55,4.9a2.25,2.25,0,0,1-.21-.12c-9.09-4.82-20.39-5.3-31-1.29a44.13,44.13,0,0,0-9.88,5.33l-7.33-46.45H361.29l-.9,5.33H326.25l-3.91,23.9-2.84-3.49A43.62,43.62,0,0,0,286,45.75l29-15.57L294.72,0,258.18,42.09l6.32,7.71a47.76,47.76,0,0,0-14.83,9.42L218.35,31.44l-11,21,.43-20.16-49,15.63,1.25,26.33,8.33-2.18,1.24,13.35c-9.51-4.28-21-4.19-31.56.31a46.42,46.42,0,0,0-8.8,5c1.84-8.12,1.41-16.14-1.69-23.27a41.9,41.9,0,0,0-18-19.81,43,43,0,0,0-19-6.75c-16.93-3-37.28.08-57.29,8.59A141.17,141.17,0,0,0,12.89,60.12l-7.83,5,4.72,8L24.44,97.87s4.51,7.61,4.53,7.6l8-3.89L38,101l36.45,81.37,3.5,7.83,8.16-2.61,19.73-6.31,8.65-2.77-2.29-8.78-10.48-40.24a84.8,84.8,0,0,0,8.42-7.07,36.69,36.69,0,0,0,1,14.34,33.82,33.82,0,0,0,18,21.71c9.57,4.6,21.25,4.61,32.05,0a46.33,46.33,0,0,0,14.32-9.65l1.48,16,34.54-5.07-.05-31,72.19,35.7V130a57.42,57.42,0,0,0,8.83-1.4,73.36,73.36,0,0,0,20.78-8.18l-3,18.54,38.92,6.14,2.15-14,10.17,18.79,6.2-12L370,157.51l44.14,7.79-2.35-14.86A40,40,0,0,0,430.35,148a43.38,43.38,0,0,0,4.29-1.91l-1.78,15.82L462.23,166l.24,12,30.61,9.63L533,67.53ZM319,75.3l2-2.17-2.48,15.15-6.37-5.73ZM293.16,13.41l10.69,14.52L273.29,43.07l-2.12-3.2ZM237.48,98.26l-10-3.86,9.28-9A44.32,44.32,0,0,0,237.48,98.26ZM90.76,125.4,103,172.19,83.21,178.5,42.7,88c-2.19,1.16-6.26,3.1-10,4.94L18,68.21a130.43,130.43,0,0,1,19-9.92c19.1-8.12,37.29-10.53,51.89-8a34.82,34.82,0,0,1,15.37,5.29,32.85,32.85,0,0,1,14.48,15.64C125.86,87.51,114.08,111,90.76,125.4Zm83.68,11.54A39.61,39.61,0,0,1,158,150.22c-17.13,7.26-34.25,0-38.82-16.24-4.44-15.75,5.87-34.44,22.47-41.57,10.58-4.49,21.21-3.43,28.84,1.75a24.79,24.79,0,0,1,10,14c.19.66.34,1.31.48,2a29.55,29.55,0,0,1,.58,7A36.37,36.37,0,0,1,174.44,136.94Zm100.24,13.21-71.62-35.83.12,37.54-18.53,2.53-1.3-15.5c5.73-9.79,7.82-21.35,4.82-31.93A33.47,33.47,0,0,0,179.4,92l-2.66-31.56-8.33,2.17-.36-8,29.76-8.86,1.82,30.69,21.92-30.81L243,66.08,213,97.66l28.14,11.14a38.58,38.58,0,0,0,14,14.74,45.11,45.11,0,0,0,19.55,6.39Zm15.68-30.63a48.42,48.42,0,0,1-6.64,1.11c-16.44,1.61-30.21-5.95-35.46-18.19a26.9,26.9,0,0,1-1.51-4.57c-2.43-10.32-.37-19.52,4.73-26.74a34,34,0,0,1,5.15-5.73,41.29,41.29,0,0,1,17.87-9.09c15.68-3.78,29.47,1,37.89,11.38L282.57,99.45c2,.36,5.25-.17,7.62-.74,7.11-1.71,11.1-5.47,14.58-9.59l11.92,10.72,3.62,3.26a59,59,0,0,1-4.89,4.53C308.56,113.31,300.72,117,290.36,119.52Zm112.71,34.2L378.69,150l-6.48-43L363,130.73,349.3,101.11h-.15l-5.44,34.32-22.88-4L324,112.29q1.29-1.2,2.55-2.49l7.41-7.64-7.18-6.47,7.63-45.59h23.12l5.77,31.56,6.49-36.59h16.52l6.86,44.58c-8.74,9.95-13,23.3-10,35.54a32.5,32.5,0,0,0,16.43,21.54c.84.45,1.71.85,2.6,1.22Zm24.42-13.27a31.17,31.17,0,0,1-17,1.66,25.09,25.09,0,0,1-9.84-4.22,24.42,24.42,0,0,1-9.47-14.4c-1.76-7.39-.15-15.32,3.83-22.21A38.73,38.73,0,0,1,402.56,92a37.49,37.49,0,0,1,11.61-7.15c10.09-3.8,20-2.48,27.06,2.56a23.49,23.49,0,0,1,6.39,6.88,24.59,24.59,0,0,1,2.88,7c2.13,8.88-.42,18.42-6,26.1a38.27,38.27,0,0,1-8.7,8.62A36.85,36.85,0,0,1,427.49,140.45Zm59.84,36.08-16.93-5.07-1.48-62.41L460.4,157.2l-18.48-2.94,1.32-13.88c12.06-10.19,18.47-26.26,15-40.83a32,32,0,0,0-9.55-16.36l1.56-16.35-7-1.86.48-8.74,31.83,6.4,10.7,50.76,11-45.5,24.22,5.36Z"/>
            <path class="cls-3" d="M436.17,96a7.8,7.8,0,0,1,.26,2.27c-.19,4.73-4.66,8.39-10,8.17s-9.47-4.22-9.27-9c.18-4.44,4.13-7.94,9-8.17a17.3,17.3,0,0,0-2.9-.38c-8.88-.36-16.14,5.94-16.46,13.78-.34,8.35,6.39,15.21,15.13,15.57s16.14-5.94,16.48-14.29A13.48,13.48,0,0,0,436.17,96Z"/>
            <path class="cls-3" d="M166.6,105.52c0,4.73-4.31,8.57-9.63,8.57s-9.63-3.84-9.63-8.57c0-4.45,3.81-8.1,8.68-8.53a17.52,17.52,0,0,0-2.92-.26c-8.88,0-15.88,6.58-15.88,14.43,0,8.36,7,14.94,15.75,14.94s15.89-6.58,15.89-14.94a13.45,13.45,0,0,0-2.61-7.9A7.68,7.68,0,0,1,166.6,105.52Z"/>
          </g>
          <path class="cls-3" d="M270.5,89.52A11,11,0,0,1,284.07,74ZM272,76.81a11,11,0,0,0-1.49,12.71L284.07,74A11,11,0,0,0,272,76.81Zm19.61-5.19a17,17,0,1,0-22.94,25.2,16.23,16.23,0,0,0,1.82,1.42l22.33-25.41C292.43,72.41,292,72,291.6,71.62Zm-21.1,17.9A11,11,0,0,1,284.07,74Z"/>
          <path class="cls-3" d="M103.31,86.76c-1.73-9.59-14.21-15-26.69-8.27l3.14,11,4.93,16.24,2.25,7.4C96.29,107.17,105.71,100,103.31,86.76ZM90.89,101.4l-4.26-14c0,.06-.59-2.06-1.26-4.44a11.88,11.88,0,0,1,7.26.78A6.23,6.23,0,0,1,96.24,88C97.24,93.55,95.34,97.47,90.89,101.4Z"/>
        </g>
        <path class="cls-4" d="M121.46,223.52c-.6,3.12-1.13,6.47-1.37,9.09s.41,4.86.33,6.12a3.53,3.53,0,0,1-2.57,2.49c-1,.2-2.13.26-2.64-1.29a13.18,13.18,0,0,1-.16-4.37c.21-2.34.48-4.06.73-5.43-9.17,9.23-17.87,15-25.31,17-6.7,1.49-9.32-2.22-8.91-8.56,1.29-11.06,10.94-27.56,18.11-37a18.37,18.37,0,0,1,5.59-4.73c1-.36,2-.28,2.41,1a13.85,13.85,0,0,1,.48,2.73c0,1.11.15,2,.13,2.37-.07.61-.4,1.79-1.16,2a3.79,3.79,0,0,1-1.2.18,4.27,4.27,0,0,0-1.17,0,4.77,4.77,0,0,0-2.38,1.78c-4.86,6.15-12.4,17.9-13.75,30.38-.28,4.23,1.35,5.38,4.18,4.77,4.33-1.23,14.11-8,20.67-15.56a11.15,11.15,0,0,0,1.09-1.28c-.89.21-1.64.84-4,2s-3.42,2.26-5.14,2.67a2.16,2.16,0,0,1-2.56-2.3c.14-1.17,1.29-3.17,2.66-3.55a33.45,33.45,0,0,0,5.91-2.36c3.73-1.78,8.66-4.18,9.69-4.51.48-.07,1.24.47,1.18,1.54A39.35,39.35,0,0,1,121.46,223.52Z"/>
        <path class="cls-4" d="M133.83,209.33c.85-.82.72-2,2.51-2.44s2,.31,3.6,0c3.29-.49,10.09,2.63,9.48,13.25a20.41,20.41,0,0,1-15.14,17.58c-5.83,1-10.1-.68-9.53-9.58C125.4,222.1,129.2,214.18,133.83,209.33ZM142,222.81c.39-5.57-1.32-10.51-3.24-10.37-2,.62-5.67,7.34-6.36,13.9-.4,5.45,1,7,3.16,6.73C138,232.48,141.37,228.45,142,222.81Z"/>
        <path class="cls-4" d="M152.47,212.43a1.65,1.65,0,0,1-1.88-1.79c.15-1.46.81-3.06,2.39-3.4.89-.17,1.74-.67,2.49-.82.35-4.55-.27-7.86.06-11.41a5.22,5.22,0,0,1,3.68-4.66c2.54-.46,3.51,1.17,3.42,2.89s-.13,7.42-.42,11c.9-.33,1.36-.92,2.46-1.12,1.44-.19,2.3.92,2.26,2.68a3.52,3.52,0,0,1-1.62,2.84,26,26,0,0,1-3,1.14c-.11,1.39-.43,9-.36,11.07s-.3,9.39-.38,10.54a4.14,4.14,0,0,1-3.27,2.94c-2.18.31-3.72-.17-3.87-1.39s.25-7.41.46-10,.45-9.61.57-11.2C154.51,211.94,153.49,212.25,152.47,212.43Z"/>
        <path class="cls-4" d="M170.6,209.55a1.72,1.72,0,0,1-1.87-1.89c.16-1.5.82-3.14,2.4-3.45.89-.15,1.74-.65,2.49-.78.36-4.71-.24-8.21.1-11.94.23-2.06,1.43-4.28,3.69-4.79,2.54-.4,3.5,1.37,3.4,3.17s-.16,7.79-.46,11.51c.9-.32,1.36-.91,2.45-1.09,1.44-.16,2.3,1,2.25,2.83a3.53,3.53,0,0,1-1.62,2.89,24.46,24.46,0,0,1-3,1.09c-.11,1.43-.44,9.17-.38,11.28s-.29,9.41-.38,10.54a4,4,0,0,1-3.25,2.85c-2.19.25-3.72-.25-3.88-1.46,0-1.24.25-7.37.47-10s.45-9.75.58-11.39C172.65,209.11,171.63,209.39,170.6,209.55Z"/>
        <path class="cls-4" d="M199.92,224a19.6,19.6,0,0,1-10.86,5.15c-3.27.33-4.95-.23-4.9-2.47.38-4,3.33-7.66,7.25-11.22,3.18-3.09,6.72-6.12,7.68-7a4.53,4.53,0,0,1,1.66-1c-.15-2.47-.81-5.1-2.92-5-1.91.3-4.61,2.37-5.83,3.76-.19.23-1.16,1.54-1.85,1.67a2.61,2.61,0,0,1-2.7-2.87,4.26,4.26,0,0,1,1.27-2.62c2.17-2,8.65-6,11.11-6.44,2.11-.24,5.78.3,7.48,11.3a54.8,54.8,0,0,1,.25,11.71,26.55,26.55,0,0,1-1.74,7.32c-.41.77-2.39,1.28-3.14,1.37-1.15.1-3.19.07-3.11-1.85Zm-6.9-4.35a6.31,6.31,0,0,0-1.62,3.62c-.06,1,.5,1.37,1.53,1.28,3.06-.43,5-3,5.73-3.47a10.7,10.7,0,0,1,1.79-1c.18-2.1.41-4.83.46-7.59A45.72,45.72,0,0,0,193,219.67Z"/>
        <path class="cls-4" d="M233.18,216.71c-.18,2.47.21,3.68,2.51,3.61s4.51-1.63,5.7-2.28,3.05-3.28,5-3.48c1.9,0,2.89,1,2.85,2-.73,4-10.42,7.66-15.45,8.15-6.9.2-7.87-3.08-7.63-6.56,1.58-13.07,13.73-24.55,16.24-25.08,1.76-.08,2.9.68,2.72,3.47-.2,2.06-.78,4.09-2.63,4.69C237,203.16,233.7,211.94,233.18,216.71Z"/>
        <path class="cls-4" d="M266.06,220.06a17.56,17.56,0,0,1-10.78,4.26c-3.25.07-4.92-.61-4.87-2.85.38-4,3.31-7.48,7.22-10.85,3.17-2.93,6.69-5.79,7.65-6.62a4,4,0,0,1,1.65-.91c-.14-2.61-.79-5.48-2.87-5.53-1.9.13-4.58,2.09-5.8,3.46-.2.23-1.17,1.52-1.85,1.6a3,3,0,0,1-2.66-3.33,4.26,4.26,0,0,1,1.28-2.7c2.17-1.91,8.61-5.61,11-5.82,2.1,0,5.71,1.09,7.36,12.75a58.47,58.47,0,0,1,.21,12.11,25.33,25.33,0,0,1-1.73,7.25c-.4.74-2.37,1.08-3.11,1.11-1.15,0-3.18-.19-3.1-2.1Zm-6.85-5a6.07,6.07,0,0,0-1.61,3.55c-.05,1,.51,1.42,1.52,1.41,3.05-.18,5-2.6,5.7-3a7.74,7.74,0,0,1,1.78-.87c.18-2.13.42-4.91.47-7.78C265.06,209.76,261.31,212.48,259.21,215.08Z"/>
        <path class="cls-4" d="M278.07,201a2.18,2.18,0,0,1-1.83-2.4c.17-1.66.84-3.41,2.4-3.49.88,0,1.72-.45,2.46-.47.41-5.25-.12-9.46.27-13.82.26-2.4,1.46-4.82,3.7-4.92,2.49.07,3.41,2.38,3.29,4.47s-.27,9-.6,13.09c.89-.21,1.35-.79,2.43-.81,1.41.07,2.24,1.53,2.19,3.52a3.29,3.29,0,0,1-1.63,2.91,20.71,20.71,0,0,1-2.95.74c-.12,1.54-.49,9.8-.44,12s-.31,9.6-.39,10.72a3.32,3.32,0,0,1-3.22,2.39c-2.16,0-3.67-.73-3.83-1.94s.25-7.4.47-10.14.52-10.36.65-12.14C280.09,200.8,279.08,201,278.07,201Z"/>
        <path class="cls-4" d="M331.92,210.3c.4-6-.23-10.73-1.75-11-2.77.09-7.54,6.69-8.09,11.12a58.44,58.44,0,0,0-.23,8,29.27,29.27,0,0,1,.5,4.86,2.3,2.3,0,0,1-2.53,2c-3-.16-3.21-.57-3.61-1.4-.5-1.93-1-12.44-1.08-15.73.12-6.74-.53-21.88.25-31.94.73-7.8,2.35-10.39,5.85-10.22,2.07.23,3.07,2.52,2.89,5.28s-.87,6.5-1.51,13.86c-.4,5.07-.24,11.58-.5,16.55,1.09-3.38,5.76-9,11.69-8.75,4.06.53,6.17,7,5.3,18.51-.22,2.2-1.33,8.14-1.64,10.73-.18,1.72-1.16,3.18-4.33,3-2.06-.29-3.05-1.33-3-2.79C330.38,220.16,331.39,216.16,331.92,210.3Z"/>
        <path class="cls-4" d="M361,183.2c2-4,3.29-8.44,4.91-8.36,2.18.46,3.67,3.63,3.61,5.24a33.72,33.72,0,0,1-3.08,7.66c-1.53,2.37-4.56,4.64-5.64,4.61a3,3,0,0,1-2.74-3.16C358.34,187.33,360.29,184.58,361,183.2Z"/>
        <path class="cls-4" d="M365.77,217.06c-.22,3.46,1.16,5.38,2.09,5.56s2.21-.59,4.11-2.11c1.15-1,2.74-2.61,4.53-3.91,1.15-.78,1.77-1.16,2.65-1.08,1.59.23,2.17,1,2.09,2.33-.38,2.42-4.8,4.92-7.43,6.41-1.41.81-6.85,4-8.53,4-4.38-.69-5.94-6.25-5.65-10.67v-.07a2.92,2.92,0,0,1-1.25.09c-.6-.1-1.12-1.22-1.08-2,.19-2,.74-2.33,2.76-3.1,0-.51.08-1,.13-1.51.91-9,4.77-15.87,6.67-15.92,7.18,1.14,11.27,7.61,11.22,10.6-.18,2.1-.26,4.12-2.85,5.69-2.08,1.18-8.2,3.83-9.37,4.59C365.84,216.35,365.81,216.69,365.77,217.06Zm.52-6.82c1.28-.62,5-2.09,6.07-2.73.15-2.45-1.13-4.51-3.32-4.85C367.89,202.73,366.55,207.66,366.29,210.24Z"/>
        <path class="cls-4" d="M397.68,229.76c.09-.93,1.45-12.81,1.57-16,.08-2.92-.4-6.43-2.11-6.83-1.82-.1-6,4-6.58,8.82-.48,6.48,1,11.08.82,14.11-.22,1.32-2.73,1.65-3.67,1.55-1.73-.25-3.08-1-3.45-1.84-.46-2-.59-8.35-.6-10.57.09-7-.67-11.55-.46-14.59a4.38,4.38,0,0,1,3.85-3.64c2.4.38,3.7,1.15,3.76,6.7,2.1-3.45,5.63-6.6,9-6.17a6.64,6.64,0,0,1,5.16,5.56,11.91,11.91,0,0,1,10.34-3.58c3.28.84,4.63,6.28,4.63,10.22,0,2.74-.19,7.41-.36,10.29s0,6-.14,7.8-1.22,3.2-4.36,2.74-3.41-2.08-3.29-3.78c.33-3.77,1.18-10.85,1.49-14.27.25-3,.52-7.17-1.57-7.72-2.14-.33-3.31.53-5.95,3,0,.31-.18,8-.33,10.64-.17,2.87-.19,6-.33,7.77s-1,3.13-4.11,2.79C398.24,232.24,397.57,231.42,397.68,229.76Z"/>
        <path class="cls-4" d="M448.09,237c-3,2.38-7.41,2.71-10.6,2.11s-4.82-1.86-4.75-4.22c.4-4.12,3.26-7,7.08-9.3,3.1-2.09,6.53-3.87,7.46-4.39a3.19,3.19,0,0,1,1.61-.43c-.16-2.34-.84-4.93-2.87-5.48a8.45,8.45,0,0,0-5.65,1.62c-.23.19-1.12,1.08-1.79,1a3.77,3.77,0,0,1-2.64-3.58,2.58,2.58,0,0,1,1.22-2c2.09-1.12,8.33-2.55,10.73-2.1,2.05.5,5.66,1.84,7.39,12.49a51.48,51.48,0,0,1,.26,11.47,25.74,25.74,0,0,1-1.74,7.3c-.4.74-2.32.66-3.05.51-1.13-.27-3.11-1-3-3.06C447.85,238.27,448,237.66,448.09,237Zm-6.7-6.7a4.81,4.81,0,0,0-1.59,3.25,1.67,1.67,0,0,0,1.48,1.83c3,.51,4.92-1.56,5.6-1.86a5.72,5.72,0,0,1,1.74-.48c.18-2.12.41-4.79.45-7.45C447.11,226.46,443.44,228.19,441.39,230.32Z"/>
        <path class="cls-4" d="M464.27,196.7c1.51.53,3.42,2,3.43,3.64s-.74,5-1.13,9.3c-.23,3.6.68,15.82.61,19.7-.05,5.14,1.18,12.1,1.09,14.08s-1.59,2.55-3.65,2.08-4.1-1.55-4.17-3.33c0-2.11-.43-8.41-.33-14.54s-1.32-17.11-.71-25.46C459.94,196.93,461.63,195.91,464.27,196.7Z"/>
        <path class="cls-4" d="M297.71,215.31c-.19,2.5.21,3.75,2.49,3.86s4.47-1.29,5.66-1.86,3-3.08,4.92-3.12c1.89.11,2.87,1.22,2.82,2.28-.72,4-10.34,6.92-15.34,7-6.85-.34-7.82-3.72-7.58-7.22,1.59-13.15,13.66-23.92,16.17-24.23,1.75.09,2.87,1,2.69,3.81-.2,2.08-.77,4.09-2.62,4.54C301.53,201.82,298.23,210.52,297.71,215.31Z"/>
        <g>
          <g>
            <path class="cls-5" d="M94.28,236.45c-1.4,1-2.71,1.92-3.86,2.62a44.4,44.4,0,0,1,2.5-8.41c0,.18-.06.36-.08.53l0,.39A7.94,7.94,0,0,0,94.28,236.45Zm26.21-18.92a6.36,6.36,0,0,0-5.25-1.58,4.89,4.89,0,0,0-.84.2c-1,.34-2.82,1.19-8,3.76l-2.13,1a33,33,0,0,1-4.66,2l-.19,0A8.69,8.69,0,0,0,95,226.06a73.11,73.11,0,0,1,6.75-10.82,10.23,10.23,0,0,0,2-.36l.29-.09c3.2-1.09,4.59-4.19,4.83-6.73,0-.06,0-.13,0-.2a11.59,11.59,0,0,0-.06-1.75c0-.35-.06-.74-.08-1.15,0-.16,0-.35-.05-.5l-.06-.43a14.62,14.62,0,0,0-.71-3.3,7.05,7.05,0,0,0-3.61-4.13,7.45,7.45,0,0,0-5.92-.11l-.15.06c-2.6,1.08-5.9,4.11-7.68,6.42-5.81,7.78-17.08,25.89-18.49,39.19,0,.1,0,.19,0,.28-.37,6.68,2.06,10.18,4.17,11.95s5.59,3.38,11.4,2l.26-.07c5.65-1.61,11.62-5,17.83-9.93a7.29,7.29,0,0,0,8.56,3.92l.21-.05c3-.74,6.19-3.44,6.63-7.16a2.53,2.53,0,0,0,0-.38,15.54,15.54,0,0,0-.19-2.89,16.29,16.29,0,0,1-.19-3c.16-2.08.58-5.06,1.17-8.28l.29-1.59a28.74,28.74,0,0,0,.52-3.63c0-.06,0-.12,0-.19A7.05,7.05,0,0,0,120.49,217.53Zm-12.6-17c0,.08,0,.16.08.24a.79.79,0,0,1,0,.09Z"/>
            <path class="cls-5" d="M144,209a13,13,0,0,0-10.29-3.39,9.93,9.93,0,0,0-3.79.06l-.23.05A7.9,7.9,0,0,0,124.3,210c-5.2,5.67-9.29,14.48-10,21.56a1.64,1.64,0,0,0,0,.23c-.31,5.68,1.06,9.9,4,12.55s6.84,3.36,11.85,2.47a1.59,1.59,0,0,0,.3-.06,25.46,25.46,0,0,0,18.89-22.17l0-.32C149.81,216.06,146.66,211.45,144,209Z"/>
            <path class="cls-5" d="M163.81,203.39a7.33,7.33,0,0,0-1.8-1.15c0-.43,0-.86,0-1.26,0-1.3,0-2.64.07-3.17a8.41,8.41,0,0,0-2.76-6.85,8.31,8.31,0,0,0-7.19-1.7l-.32.07a10.5,10.5,0,0,0-7.67,9.39,44.16,44.16,0,0,0,0,5.87c0,.68.06,1.34.09,2a9,9,0,0,0-4.78,7.54c0,.1,0,.21,0,.31a7.35,7.35,0,0,0,2.38,5.67,7.19,7.19,0,0,0,2.2,1.33c-.06,1.87-.14,3.76-.21,4.79-.19,2.67-.4,8.89-.37,10.34a4.62,4.62,0,0,0,.06.66,6.85,6.85,0,0,0,2.71,4.58c1.3,1,3.63,2,7.38,1.44l.25-.05c3.89-.76,7.15-4.06,7.58-7.67a1.73,1.73,0,0,0,0-.32c.09-1.34.25-8.67.28-10.59,0-.11,0-.21,0-.32,0-1.08,0-4.26.1-6.83l.1-.05a8.94,8.94,0,0,0,4.51-7.39v-.21A8.21,8.21,0,0,0,163.81,203.39Z"/>
            <path class="cls-5" d="M181.57,200.5a7.5,7.5,0,0,0-1.8-1.19c0-.54,0-1.06,0-1.56,0-1.46.05-2.83.09-3.41a8.68,8.68,0,0,0-2.75-7,8.32,8.32,0,0,0-7-1.85l-.34.07c-4.26,1-7.33,4.75-7.8,9.56a48.09,48.09,0,0,0,0,6.12c0,.72.06,1.46.07,2.21a9.06,9.06,0,0,0-4.79,7.61c0,.1,0,.19,0,.29a7.46,7.46,0,0,0,2.35,5.7,7.13,7.13,0,0,0,2.22,1.38c-.07,2-.15,4-.22,5.07-.2,2.71-.4,8.92-.37,10.34,0,.21,0,.43,0,.64.51,3.6,3.78,6.88,10,6.1l.25,0c4-.69,7.26-4,7.7-7.59l0-.32c.08-1.31.24-8.65.27-10.59v-.32c0-1.1,0-4.36.11-7l.05,0a9,9,0,0,0,4.56-7.46V207A8.41,8.41,0,0,0,181.57,200.5Z"/>
            <path class="cls-5" d="M205.94,209.83c-2.29-13.88-8.64-16.08-13.55-15.48l-.33.06c-4.18.77-11.49,5.88-13.56,7.79a2.61,2.61,0,0,0-.23.24,9.53,9.53,0,0,0-2.73,5.88c0,.1,0,.2,0,.3a8.14,8.14,0,0,0,2.51,6.31,8,8,0,0,0,1.87,1.3c-3.24,3.22-6.89,7.77-7.37,13.33a2.68,2.68,0,0,0,0,.4,7.71,7.71,0,0,0,2.46,6c2.58,2.34,6.09,2.24,8.5,2l.14,0a26.33,26.33,0,0,0,7.72-2.41,9.3,9.3,0,0,0,5.39.89h.15c1.28-.16,5.57-1,7.29-4.35a2.39,2.39,0,0,0,.13-.28,31.3,31.3,0,0,0,2.08-9A58.1,58.1,0,0,0,205.94,209.83Zm-17.52,13.52h0v0Zm.05.8a.69.69,0,0,1,0,.13h0S188.48,224.2,188.47,224.15Z"/>
            <path class="cls-5" d="M245,214.35a8.48,8.48,0,0,0-6.37-2.34l-.43,0a9.74,9.74,0,0,0-5.07,2.32c1.06-2.32,2.39-4.21,3.46-4.6,2.58-.86,5.76-3.19,6.28-9.39,0-.06,0-.11,0-.16a8.78,8.78,0,0,0-2.31-7A7.79,7.79,0,0,0,234.4,191a4.63,4.63,0,0,0-.9.12c-5.1,1.14-18.3,14.68-19.94,29.52a2.83,2.83,0,0,0,0,.29c-.22,3.73.74,6.72,2.86,8.88,2.36,2.4,5.77,3.49,10.41,3.3a2.31,2.31,0,0,0,.37,0c4.82-.51,18.48-4.47,19.9-12.68a5.16,5.16,0,0,0,.08-.78A7.09,7.09,0,0,0,245,214.35Z"/>
            <path class="cls-5" d="M270.72,205.51c-1.73-11.44-6.09-17.19-12.92-17l-.38,0c-4.32.41-11.83,5.31-14,7.22a3.07,3.07,0,0,0-.26.25,9.73,9.73,0,0,0-2.76,6c0,.1,0,.19,0,.28a8.68,8.68,0,0,0,2.4,6.45,8.5,8.5,0,0,0,2.3,1.68c-3.35,3.1-7.24,7.61-7.73,13.38a2.68,2.68,0,0,0,0,.4,7.79,7.79,0,0,0,2.29,5.85c2.43,2.38,5.84,2.56,8.19,2.49H248a24.85,24.85,0,0,0,7.7-1.78,9.48,9.48,0,0,0,5.32,1.33h.16c1.34-.06,5.83-.53,7.68-4.07l.14-.27a30.47,30.47,0,0,0,2.1-9A62.27,62.27,0,0,0,270.72,205.51Zm-12.09,7.84a1.73,1.73,0,0,0-.32,0l0,0Zm-5.43,5.19v0Zm0,1v0Z"/>
            <path class="cls-5" d="M285,190.91c0-1,0-2,.07-2.95,0-1.71.09-3.33.13-4a10.21,10.21,0,0,0-2.52-7.52,8.57,8.57,0,0,0-6.14-2.7h-.41c-4.71.26-8.23,4.21-8.77,9.84a66.79,66.79,0,0,0-.09,7c0,.89.05,1.79.05,2.71-2.31,1.08-4.42,3.48-4.81,7.77,0,.09,0,.18,0,.27a8,8,0,0,0,2.14,5.79A7.23,7.23,0,0,0,267,208.8c-.09,2.37-.19,5-.28,6.31-.2,2.84-.41,9-.38,10.45,0,.22,0,.43.05.64.43,3,3.09,6.57,9.2,6.62h.27c4.22-.17,7.9-3.34,8.38-7.21l0-.33c.08-1.33.25-8.89.29-10.75,0-.1,0-.2,0-.3,0-1.15.05-4.62.15-7.43a8.75,8.75,0,0,0,4.6-7.46,1.7,1.7,0,0,0,0-.22C289.35,195.37,287.65,192.32,285,190.91Z"/>
            <path class="cls-5" d="M302.25,211c-.15,0-.3,0-.45,0a9.94,9.94,0,0,0-5.92,2.53c1.07-2.7,2.59-4.9,3.66-5.2l-.14,0c2.25-.57,6.1-2.54,6.68-9.37a.76.76,0,0,1,0-.15,9.19,9.19,0,0,0-2.13-7,8.05,8.05,0,0,0-5.83-2.57,5.92,5.92,0,0,0-.94,0c-5.9.77-18.77,14.28-20.37,28.77a2.64,2.64,0,0,0,0,.28,11.83,11.83,0,0,0,2.71,8.88c2.22,2.45,5.61,3.78,10.07,4H290c4.9-.14,18.79-3.16,20.25-11.6a6.7,6.7,0,0,0,.08-.77C310.41,214.61,307,211.22,302.25,211Z"/>
            <path class="cls-5" d="M325,189.94l-.52,0a14.77,14.77,0,0,0-5.8,1c0-.93.06-1.84.12-2.69.34-4.41.68-7.42,1-9.83.16-1.4.29-2.6.38-3.69a.76.76,0,0,0,0-.15c.32-5.93-2.89-10.42-7.82-10.94l-.37,0c-10-.36-11,10.89-11.34,15.12-.46,7-.25,16-.07,23.26.08,3.43.15,6.4.13,8.47v.2c0,.13.56,13.54,1.41,16.69a4.87,4.87,0,0,0,.39,1c1.89,3.8,5.12,4.25,8.26,4.38h.4a8,8,0,0,0,6.31-3.15,9.07,9.07,0,0,0,5.86,2.92,4.9,4.9,0,0,0,.54,0c5.51.17,9.38-3,9.87-8,.1-1,.4-2.91.68-4.75.36-2.32.7-4.51.82-5.83C336.42,195.25,330.32,190.58,325,189.94Z"/>
            <path class="cls-5" d="M356.74,172a4.93,4.93,0,0,0-.85-.1c-5-.22-6.95,4.48-8.56,8.25-.42,1-.86,2-1.33,3-.12.22-.31.54-.51.88-1.41,2.37-2.59,4.53-2.87,6.88a3.11,3.11,0,0,0,0,.43,8.41,8.41,0,0,0,7.51,8.75,4.21,4.21,0,0,0,.62.05c4.62.09,9-5.26,10.24-7.14a3.64,3.64,0,0,0,.23-.39c1.49-2.85,3.26-7.26,3.53-9.42,0-.18,0-.36,0-.54C364.85,179,362,173.05,356.74,172Z"/>
            <path class="cls-5" d="M372.51,212.49a14.92,14.92,0,0,0,.83-4.35v-.22c0-.12,0-.25,0-.37,0-5.61-6-14.32-15.81-15.77a5.49,5.49,0,0,0-1-.06c-6.76.23-10.52,11.4-11.54,19.27a8,8,0,0,0-2.93,6,1.79,1.79,0,0,0,0,.23,8,8,0,0,0,2.48,6c.82,5.7,4,11.07,10.16,12a5.16,5.16,0,0,0,.79.06c2.29,0,4.9-1.1,10.72-4.53l.4-.24c3.63-2.1,9.15-5.29,9.89-10.31a4.4,4.4,0,0,0,.05-.51A7.29,7.29,0,0,0,372.51,212.49Zm-23.92,1.45-.29.07Z"/>
            <path class="cls-5" d="M414.5,214.72c-.06-6.13-2.41-13.76-8.83-15.35l-.47-.1a17.28,17.28,0,0,0-9.23,1.25,11.32,11.32,0,0,0-5.83-3c-.12,0-.24,0-.37-.06a11.64,11.64,0,0,0-7.37,1.73,9.81,9.81,0,0,0-5-2.1l-.4,0c-4-.3-9,3.26-9.63,8.46l0,.33a46.19,46.19,0,0,0,.21,5.92c.18,2.44.38,5.21.38,8.68,0,1.53.17,8.82.84,11.64a6.22,6.22,0,0,0,.31.92c1.17,2.7,4,4.54,7.72,5l.24,0a10.21,10.21,0,0,0,6.68-1.68,10,10,0,0,0,6.06,2.79l.28,0a9.35,9.35,0,0,0,7.09-1.84l.18-.16a9.59,9.59,0,0,0,6.12,3.37l.23,0a9.37,9.37,0,0,0,7.39-1.7,8.37,8.37,0,0,0,3.1-6c0-.06,0-.12,0-.18.07-1,.05-2.22,0-3.61s0-2.8,0-4.12C414.39,222.07,414.49,217.37,414.5,214.72Z"/>
            <path class="cls-5" d="M449.09,222.35c-1.7-9.79-5.37-15.07-11.53-16.51l-.29-.06c-3.91-.69-11.26,1.2-14.11,2.76-.14.08-.27.15-.4.24a8,8,0,0,0-3.62,6.1c0,.1,0,.21,0,.31a9.13,9.13,0,0,0,4.36,8c-2.81,2.07-6.76,5.9-7.28,11.94,0,.12,0,.25,0,.38,0,2.87,1.08,7.94,9.11,9.58l.15,0a20.46,20.46,0,0,0,7.73-.1,10,10,0,0,0,5,2.69l.17,0c3,.58,7.11,0,8.92-3.36l.15-.31a31.28,31.28,0,0,0,2.1-9A55.67,55.67,0,0,0,449.09,222.35ZM436,228.24a5.39,5.39,0,0,1,1.55-.13h0A7.85,7.85,0,0,0,436,228.24Zm-4.27,5.24v0Z"/>
            <path class="cls-5" d="M461.66,238.41a80.66,80.66,0,0,1-.75-8.64c0-1.82-.17-5-.38-8.76s-.5-8.48-.42-10.18c.18-2.17.43-4.09.63-5.63s.33-2.59.38-3.58c0-.12,0-.23,0-.35-.06-4.35-3.64-7.49-7.15-8.68l-.22-.07a8.51,8.51,0,0,0-7.45.94c-3.31,2.26-4,6.37-4.29,9.28a.61.61,0,0,0,0,.14A132.89,132.89,0,0,0,442.5,220c.23,3.11.44,6.06.44,8.16,0,4,.18,8,.33,10.9.07,1.46.14,2.73.14,3.33,0,.1,0,.2,0,.3.1,1.89,1.11,6.48,8.29,8.27l.17,0a8.51,8.51,0,0,0,7.07-1.2,7.82,7.82,0,0,0,3.14-5.69c0-.12,0-.24,0-.36A38.36,38.36,0,0,0,461.66,238.41Z"/>
            <path class="cls-5" d="M474,241.33a81.65,81.65,0,0,1-.73-8.64c0-1.85-.2-5.25-.42-8.84s-.49-8.06-.42-9.65c.17-2,.41-3.84.6-5.29s.33-2.46.37-3.43c0-.12,0-.23,0-.35-.08-4.19-3.61-7.3-7.08-8.52l-.21-.07a8.54,8.54,0,0,0-7.58.82c-3.26,2.19-4,6.13-4.22,8.89a.61.61,0,0,1,0,.14,125.64,125.64,0,0,0,.53,16.39c.23,3.12.46,6.08.46,8.2,0,3.94.18,8,.32,10.94.08,1.5.14,2.8.14,3.43a2.26,2.26,0,0,0,0,.26c.09,1.89,1.07,6.49,8.17,8.42l.16,0a8.4,8.4,0,0,0,7.12-1.09,7.86,7.86,0,0,0,3.21-5.77,2.07,2.07,0,0,0,0-.35A38.59,38.59,0,0,0,474,241.33Z"/>
          </g>
          <path class="cls-4" d="M116.55,227.55c-.56,3.07-1,6.36-1.25,8.93s.45,4.76.38,6a3.47,3.47,0,0,1-2.49,2.47c-.94.2-2.08.28-2.6-1.24a12.88,12.88,0,0,1-.2-4.28c.18-2.29.43-4,.66-5.33C102.16,243.23,93.69,249,86.42,251c-6.55,1.54-9.15-2.08-8.81-8.29,1.15-10.86,10.44-27.13,17.37-36.41a18.08,18.08,0,0,1,5.42-4.7c1-.36,2-.29,2.37.92a13.1,13.1,0,0,1,.51,2.66c0,1.1.17,2,.14,2.33,0,.6-.37,1.76-1.11,2a3.63,3.63,0,0,1-1.17.19,4.5,4.5,0,0,0-1.15,0,4.67,4.67,0,0,0-2.32,1.77c-4.69,6.08-12,17.67-13.16,29.91-.24,4.15,1.38,5.26,4.14,4.63,4.24-1.25,13.75-8,20.1-15.45a13,13,0,0,0,1.06-1.27c-.88.21-1.61.84-3.94,2s-3.34,2.25-5,2.67a2.1,2.1,0,0,1-2.52-2.23c.12-1.15,1.23-3.12,2.57-3.51a32.13,32.13,0,0,0,5.76-2.37c3.64-1.78,8.44-4.19,9.46-4.52.47-.07,1.21.45,1.17,1.51A37.58,37.58,0,0,1,116.55,227.55Z"/>
          <path class="cls-4" d="M128.53,213.53c.83-.81.68-2,2.43-2.42s2,.28,3.53,0c3.23-.51,9.91,2.48,9.43,12.89a20,20,0,0,1-14.66,17.38c-5.71,1-9.91-.57-9.44-9.29C120.39,226.12,124,218.33,128.53,213.53Zm8.13,13.12c.32-5.46-1.41-10.29-3.29-10.13-1.92.63-5.48,7.25-6.1,13.69-.33,5.34,1.09,6.87,3.17,6.56C132.85,236.16,136.11,232.18,136.66,226.65Z"/>
          <path class="cls-4" d="M146.82,216.37a1.62,1.62,0,0,1-1.86-1.73c.14-1.43.77-3,2.31-3.35.87-.18,1.7-.68,2.44-.83.29-4.47-.34-7.71-.06-11.19a5.1,5.1,0,0,1,3.56-4.6c2.48-.48,3.45,1.11,3.38,2.79s-.05,7.28-.3,10.8c.88-.33,1.32-.91,2.39-1.12,1.41-.2,2.27.88,2.25,2.6a3.46,3.46,0,0,1-1.56,2.8,25.22,25.22,0,0,1-2.91,1.15c-.09,1.36-.33,8.8-.24,10.85s-.19,9.2-.26,10.33a4.08,4.08,0,0,1-3.18,2.92c-2.14.32-3.64-.13-3.81-1.33s.17-7.26.35-9.84.34-9.42.45-11C148.82,215.88,147.83,216.19,146.82,216.37Z"/>
          <path class="cls-4" d="M164.57,213.37a1.68,1.68,0,0,1-1.85-1.83c.13-1.47.77-3.09,2.31-3.41.87-.16,1.69-.65,2.43-.78.31-4.62-.32-8,0-11.71.2-2,1.36-4.21,3.57-4.73,2.48-.42,3.44,1.3,3.36,3.07s-.08,7.64-.34,11.29c.88-.32,1.33-.91,2.4-1.1,1.4-.16,2.26,1,2.23,2.76a3.44,3.44,0,0,1-1.56,2.84,23.73,23.73,0,0,1-2.91,1.1c-.09,1.4-.34,9-.26,11.06s-.19,9.22-.26,10.33a3.92,3.92,0,0,1-3.16,2.82c-2.14.27-3.65-.21-3.81-1.39s.17-7.23.35-9.83.35-9.56.46-11.16C166.56,212.92,165.57,213.21,164.57,213.37Z"/>
          <path class="cls-4" d="M193.44,227.26a19.1,19.1,0,0,1-10.59,5.15c-3.2.36-4.86-.17-4.83-2.37.34-3.91,3.19-7.54,7-11.07,3.08-3.06,6.52-6.06,7.45-6.92a4.57,4.57,0,0,1,1.61-1c-.17-2.42-.84-5-2.91-4.83-1.86.31-4.48,2.36-5.67,3.74-.18.23-1.12,1.52-1.79,1.65a2.56,2.56,0,0,1-2.68-2.78,4.11,4.11,0,0,1,1.22-2.58c2.11-1.95,8.41-6,10.82-6.42,2.07-.26,5.66.23,7.45,11a52.42,52.42,0,0,1,.35,11.47,25.62,25.62,0,0,1-1.63,7.19c-.38.76-2.32,1.28-3.05,1.37-1.13.11-3.14.1-3.08-1.78C193.22,228.47,193.33,227.88,193.44,227.26Zm-6.81-4.2a6.27,6.27,0,0,0-1.55,3.57c0,.93.51,1.33,1.51,1.24,3-.45,4.92-3,5.59-3.46a8.47,8.47,0,0,1,1.74-1c.16-2.06.36-4.74.37-7.45A45.22,45.22,0,0,0,186.63,223.06Z"/>
          <path class="cls-4" d="M226,219.75c-.17,2.43.23,3.61,2.49,3.52s4.4-1.64,5.56-2.3,3-3.24,4.82-3.45,2.84.93,2.8,2c-.67,3.89-10.12,7.61-15,8.14-6.76.27-7.74-2.94-7.54-6.35,1.41-12.83,13.2-24.2,15.66-24.75,1.72-.09,2.85.65,2.7,3.38-.17,2-.72,4-2.53,4.62C229.59,206.43,226.42,215.08,226,219.75Z"/>
          <path class="cls-4" d="M258.22,222.7A17.19,17.19,0,0,1,247.69,227c-3.18.1-4.83-.55-4.8-2.75.34-3.87,3.17-7.36,7-10.69,3.07-2.91,6.5-5.75,7.42-6.57a3.93,3.93,0,0,1,1.61-.91c-.16-2.55-.82-5.36-2.86-5.39-1.86.14-4.47,2.09-5.65,3.44-.19.23-1.13,1.51-1.79,1.59a2.93,2.93,0,0,1-2.65-3.23,4.18,4.18,0,0,1,1.23-2.66c2.1-1.9,8.38-5.59,10.77-5.81,2.06-.06,5.61,1,7.34,12.42a57.85,57.85,0,0,1,.33,11.86,24.86,24.86,0,0,1-1.63,7.12c-.38.73-2.3,1.09-3,1.12-1.13,0-3.12-.16-3.06-2C258,223.9,258.11,223.32,258.22,222.7Zm-6.76-4.81a5.92,5.92,0,0,0-1.55,3.5c0,.93.51,1.39,1.5,1.37,3-.21,4.89-2.6,5.56-3a8,8,0,0,1,1.73-.87c.16-2.09.36-4.82.38-7.63C257.13,212.62,253.48,215.32,251.46,217.89Z"/>
          <path class="cls-4" d="M269.79,203.89a2.13,2.13,0,0,1-1.81-2.33c.14-1.63.78-3.35,2.31-3.45.86,0,1.68-.45,2.41-.48.35-5.16-.22-9.27.12-13.55.23-2.36,1.39-4.74,3.58-4.86,2.44.05,3.37,2.3,3.27,4.35s-.18,8.79-.46,12.83c.87-.21,1.31-.79,2.37-.82,1.39.06,2.22,1.48,2.18,3.43a3.2,3.2,0,0,1-1.56,2.87,20.67,20.67,0,0,1-2.88.75c-.1,1.52-.39,9.61-.31,11.79s-.21,9.41-.28,10.51a3.24,3.24,0,0,1-3.13,2.37c-2.11,0-3.61-.68-3.77-1.87s.17-7.25.36-9.93.4-10.16.51-11.91C271.77,203.69,270.78,203.86,269.79,203.89Z"/>
          <path class="cls-4" d="M322.65,212.48c.34-5.84-.33-10.51-1.82-10.78-2.71.13-7.32,6.64-7.82,11a56.25,56.25,0,0,0-.14,7.86,28.23,28.23,0,0,1,.54,4.75,2.25,2.25,0,0,1-2.46,2c-3-.13-3.15-.52-3.55-1.33-.51-1.89-1.12-12.18-1.22-15.41.05-6.61-.73-21.43-.08-31.3.64-7.65,2.21-10.2,5.64-10.08,2,.21,3,2.44,2.88,5.15s-.79,6.37-1.34,13.6c-.34,5-.12,11.35-.33,16.22,1-3.32,5.56-8.83,11.37-8.69,4,.48,6.12,6.76,5.38,18.08-.19,2.16-1.22,8-1.5,10.54-.16,1.69-1.1,3.12-4.2,3-2-.27-3-1.28-2.95-2.71C321.25,222.15,322.19,218.23,322.65,212.48Z"/>
          <path class="cls-4" d="M350.92,185.63c1.92-3.91,3.14-8.31,4.73-8.24,2.14.43,3.63,3.52,3.59,5.1A33.33,33.33,0,0,1,356.3,190c-1.48,2.34-4.42,4.59-5.48,4.57a2.9,2.9,0,0,1-2.72-3.06C348.31,189.7,350.2,187,350.92,185.63Z"/>
          <path class="cls-4" d="M355.9,218.77c-.19,3.38,1.19,5.25,2.1,5.42s2.16-.6,4-2.11c1.13-1,2.67-2.58,4.4-3.88,1.12-.78,1.73-1.15,2.59-1.08,1.57.21,2.14,1,2.07,2.26-.35,2.38-4.65,4.87-7.21,6.35-1.38.81-6.67,4-8.33,4-4.3-.63-5.87-6.06-5.63-10.4v-.06a2.94,2.94,0,0,1-1.22.09c-.59-.09-1.11-1.18-1.08-1.94.17-1.91.7-2.29,2.67-3.06,0-.5.08-1,.11-1.48.8-8.82,4.53-15.6,6.38-15.66,7.05,1,11.12,7.34,11.1,10.27-.15,2.06-.2,4-2.73,5.6-2,1.17-8,3.84-9.14,4.6C356,218.07,355.93,218.4,355.9,218.77Zm.44-6.7c1.24-.62,4.86-2.09,5.92-2.74.11-2.4-1.15-4.41-3.31-4.71C357.83,204.7,356.57,209.54,356.34,212.07Z"/>
          <path class="cls-4" d="M387.29,230.88c.08-.9,1.29-12.56,1.38-15.72.05-2.86-.46-6.29-2.13-6.67-1.79-.08-5.86,4-6.37,8.71-.4,6.36,1.1,10.85.95,13.82-.2,1.29-2.66,1.64-3.58,1.56-1.7-.24-3-.92-3.4-1.78-.47-2-.66-8.17-.7-10.35,0-6.87-.76-11.31-.59-14.29a4.31,4.31,0,0,1,3.74-3.61c2.35.35,3.63,1.1,3.74,6.53,2-3.4,5.46-6.52,8.81-6.14a6.53,6.53,0,0,1,5.11,5.4,11.66,11.66,0,0,1,10.09-3.62c3.22.8,4.61,6.11,4.64,10,0,2.68-.11,7.26-.24,10.08s.05,5.91-.06,7.65-1.17,3.15-4.25,2.73-3.36-2-3.26-3.67c.29-3.7,1.05-10.65,1.31-14,.22-2.94.44-7-1.61-7.55-2.1-.3-3.24.56-5.81,3,0,.3-.09,7.82-.2,10.43-.14,2.82-.14,5.9-.26,7.61s-1,3.08-4,2.79C387.87,233.31,387.2,232.51,387.29,230.88Z"/>
          <path class="cls-4" d="M436.77,237.49c-3,2.36-7.23,2.73-10.37,2.18s-4.74-1.78-4.7-4.09c.35-4,3.13-6.85,6.85-9.19,3-2.08,6.36-3.86,7.26-4.37a3.22,3.22,0,0,1,1.58-.44c-.19-2.29-.88-4.82-2.88-5.34a8.27,8.27,0,0,0-5.51,1.64c-.22.19-1.09,1.07-1.74,1a3.71,3.71,0,0,1-2.63-3.48,2.52,2.52,0,0,1,1.18-2c2-1.12,8.13-2.58,10.49-2.16,2,.47,5.56,1.74,7.37,12.16a51.3,51.3,0,0,1,.37,11.24,25.5,25.5,0,0,1-1.63,7.16c-.38.73-2.27.67-3,.53-1.1-.25-3.05-.95-3-3C436.55,238.72,436.65,238.12,436.77,237.49ZM430.13,231a4.66,4.66,0,0,0-1.52,3.2,1.63,1.63,0,0,0,1.47,1.78c2.95.46,4.81-1.58,5.47-1.89.95-.33,1.85-.61,1.7-.48.15-2.08.35-4.7.36-7.31C435.7,227.15,432.12,228.89,430.13,231Z"/>
          <path class="cls-4" d="M452.22,197.82c1.48.5,3.37,1.87,3.39,3.53s-.67,4.89-1,9.12c-.19,3.53.83,15.5.8,19.31,0,5,1.28,11.84,1.21,13.78s-1.54,2.51-3.56,2.07-4-1.47-4.12-3.22c0-2.07-.5-8.23-.47-14.24s-1.46-16.76-.95-24.94C448,198.08,449.62,197.07,452.22,197.82Z"/>
          <path class="cls-4" d="M464.52,201.81c1.47.52,3.37,1.87,3.4,3.42s-.65,4.57-1,8.62c-.17,3.37.86,15.06.83,18.85,0,5,1.27,12,1.2,13.94s-1.54,2.55-3.56,2.07-4-1.58-4.11-3.37c0-2.11-.49-8.39-.46-14.37s-1.49-16.48-1-24.23C460.28,201.89,461.93,201,464.52,201.81Z"/>
          <path class="cls-4" d="M289.18,217.74c-.16,2.44.24,3.67,2.48,3.75s4.37-1.31,5.53-1.88,2.94-3,4.79-3.11c1.85.09,2.82,1.17,2.79,2.21-.67,3.89-10.06,6.88-15,7-6.71-.26-7.7-3.56-7.49-7,1.42-12.9,13.14-23.58,15.59-23.9,1.72.07,2.83.94,2.68,3.7-.17,2.05-.72,4-2.52,4.48C292.79,204.47,289.64,213,289.18,217.74Z"/>
          <g>
            <path class="cls-5" d="M495.31,243.91a11.72,11.72,0,0,0-1.36-1.59,8.25,8.25,0,0,0,1.47-4.49c.06-.82.18-2.19.33-3.79.3-3.28.71-7.77,1-12,.24-4,.7-7.53,1-9.65.13-1,.2-1.59.24-2a9.07,9.07,0,0,0-18.07-1.57c-.07,1-.06,3.06,0,6.64s0,7.76-.08,9.39c-.15,2-.29,5.86-.41,8.94-.07,1.88-.14,3.65-.18,4.16a5.32,5.32,0,0,0,.91,3.75,8.26,8.26,0,0,0-4.19,6.45,7.81,7.81,0,0,0,1.8,6c1.82,2.12,4.69,3.25,8.79,3.47,5.26.29,10.84-1.94,11.32-6.74A10,10,0,0,0,495.31,243.91Z"/>
            <path class="cls-4" d="M489.09,205.3a4.28,4.28,0,0,1,4.15,4.73c-.08,1.07-.87,6-1.21,11.72-.39,6.28-1.11,13.2-1.29,15.74-.13,1.8-1,3.3-3.05,3.26-2.94-.05-3.83-2.08-3.72-3.62s.22-8.7.45-12,0-14.09.13-16A4.82,4.82,0,0,1,489.09,205.3Zm-1.9,38.95c3.19.2,5.8,4.19,5.45,6-.27,1.43-2.95,2.42-5.75,2.27-3.8-.2-5.79-1.43-5.55-3.87C481.52,246.87,485,244.11,487.19,244.25Z"/>
          </g>
        </g>
      </g>
    </g>
  </g>
</svg>
